<?xml version="1.0" encoding="UTF-8"?>
<svg xmlns="http://www.w3.org/2000/svg" version="1.1" viewBox="0 0 595.3 841.9">
  <!-- Generator: Adobe Illustrator 29.3.0, SVG Export Plug-In . SVG Version: 2.1.0 Build 146)  -->
  <defs>
    <style>
      .st0, .st1 {
        fill: none;
      }

      .st1 {
        stroke: #ed2224;
        stroke-width: .7px;
      }

      .st1, .st2 {
        stroke-miterlimit: 10;
      }

      .st2 {
        fill: #fff;
        stroke: #231f20;
      }

      .st3 {
        display: none;
      }
    </style>
  </defs>
  <g id="fond_transparent">
    <rect class="st0" width="595.3" height="841.9"/>
  </g>
  <g id="carte_sans_bleed" class="st3">
    <g>
      <rect class="st2" x="29.8" y="46.8" width="178.6" height="249.4"/>
      <rect class="st2" x="208.3" y="46.8" width="178.6" height="249.4"/>
      <rect class="st2" x="386.9" y="46.8" width="178.6" height="249.4"/>
      <rect class="st2" x="29.8" y="296.2" width="178.6" height="249.4"/>
      <rect class="st2" x="208.3" y="296.2" width="178.6" height="249.4"/>
      <rect class="st2" x="386.9" y="296.2" width="178.6" height="249.4"/>
      <rect class="st2" x="29.8" y="545.7" width="178.6" height="249.4"/>
      <rect class="st2" x="208.3" y="545.7" width="178.6" height="249.4"/>
      <rect class="st2" x="386.9" y="545.7" width="178.6" height="249.4"/>
    </g>
  </g>
  <g id="repere_sans_bleed">
    <g>
      <line class="st1" x1="24.2" y1="46.8" x2="35.5" y2="46.8"/>
      <line class="st1" x1="29.8" y1="41.1" x2="29.8" y2="52.4"/>
    </g>
    <g>
      <line class="st1" x1="202.7" y1="46.8" x2="214" y2="46.8"/>
      <line class="st1" x1="208.3" y1="41.1" x2="208.3" y2="52.4"/>
    </g>
    <g>
      <line class="st1" x1="381.3" y1="46.8" x2="392.6" y2="46.8"/>
      <line class="st1" x1="386.9" y1="41.1" x2="386.9" y2="52.4"/>
    </g>
    <g>
      <line class="st1" x1="559.9" y1="46.8" x2="571.2" y2="46.8"/>
      <line class="st1" x1="565.5" y1="41.1" x2="565.5" y2="52.4"/>
    </g>
    <g>
      <line class="st1" x1="24.2" y1="296.3" x2="35.5" y2="296.3"/>
      <line class="st1" x1="29.8" y1="290.6" x2="29.8" y2="301.9"/>
    </g>
    <g>
      <line class="st1" x1="202.7" y1="296.3" x2="214" y2="296.3"/>
      <line class="st1" x1="208.3" y1="290.6" x2="208.3" y2="301.9"/>
    </g>
    <g>
      <line class="st1" x1="381.3" y1="296.3" x2="392.6" y2="296.3"/>
      <line class="st1" x1="386.9" y1="290.6" x2="386.9" y2="301.9"/>
    </g>
    <g>
      <line class="st1" x1="559.9" y1="296.3" x2="571.2" y2="296.3"/>
      <line class="st1" x1="565.5" y1="290.6" x2="565.5" y2="301.9"/>
    </g>
    <g>
      <line class="st1" x1="24.2" y1="545.7" x2="35.5" y2="545.7"/>
      <line class="st1" x1="29.8" y1="540" x2="29.8" y2="551.3"/>
    </g>
    <g>
      <line class="st1" x1="202.7" y1="545.7" x2="214" y2="545.7"/>
      <line class="st1" x1="208.3" y1="540" x2="208.3" y2="551.3"/>
    </g>
    <g>
      <line class="st1" x1="381.3" y1="545.7" x2="392.6" y2="545.7"/>
      <line class="st1" x1="386.9" y1="540" x2="386.9" y2="551.3"/>
    </g>
    <g>
      <line class="st1" x1="559.9" y1="545.7" x2="571.2" y2="545.7"/>
      <line class="st1" x1="565.5" y1="540" x2="565.5" y2="551.3"/>
    </g>
    <g>
      <line class="st1" x1="24.2" y1="795.2" x2="35.5" y2="795.2"/>
      <line class="st1" x1="29.8" y1="789.5" x2="29.8" y2="800.8"/>
    </g>
    <g>
      <line class="st1" x1="202.7" y1="795.2" x2="214" y2="795.2"/>
      <line class="st1" x1="208.3" y1="789.5" x2="208.3" y2="800.8"/>
    </g>
    <g>
      <line class="st1" x1="381.3" y1="795.2" x2="392.6" y2="795.2"/>
      <line class="st1" x1="386.9" y1="789.5" x2="386.9" y2="800.8"/>
    </g>
    <g>
      <line class="st1" x1="559.9" y1="795.2" x2="571.2" y2="795.2"/>
      <line class="st1" x1="565.5" y1="789.5" x2="565.5" y2="800.8"/>
    </g>
  </g>
  <g id="cartes_avec_bleed" class="st3">
    <g>
      <g>
        <rect class="st2" x="-14.2" y="73.7" width="255.1" height="184.3" transform="translate(279.2 52.4) rotate(90)"/>
        <rect class="st2" x="-11.3" y="76.5" width="249.4" height="178.6" transform="translate(279.2 52.4) rotate(90)"/>
      </g>
      <g>
        <rect class="st2" x="170.1" y="73.7" width="255.1" height="184.3" transform="translate(463.5 -131.8) rotate(90)"/>
        <rect class="st2" x="172.9" y="76.5" width="249.4" height="178.6" transform="translate(463.5 -131.8) rotate(90)"/>
      </g>
      <g>
        <rect class="st2" x="354.3" y="73.7" width="255.1" height="184.3" transform="translate(647.7 -316.1) rotate(90)"/>
        <rect class="st2" x="357.2" y="76.5" width="249.4" height="178.6" transform="translate(647.7 -316.1) rotate(90)"/>
      </g>
      <g>
        <rect class="st2" x="-14.2" y="328.8" width="255.1" height="184.3" transform="translate(534.3 307.6) rotate(90)"/>
        <rect class="st2" x="-11.3" y="331.7" width="249.4" height="178.6" transform="translate(534.3 307.6) rotate(90)"/>
      </g>
      <g>
        <rect class="st2" x="170.1" y="328.8" width="255.1" height="184.3" transform="translate(718.6 123.3) rotate(90)"/>
        <rect class="st2" x="172.9" y="331.7" width="249.4" height="178.6" transform="translate(718.6 123.3) rotate(90)"/>
      </g>
      <g>
        <rect class="st2" x="354.3" y="328.8" width="255.1" height="184.3" transform="translate(902.8 -60.9) rotate(90)"/>
        <rect class="st2" x="357.2" y="331.7" width="249.4" height="178.6" transform="translate(902.8 -60.9) rotate(90)"/>
      </g>
      <g>
        <rect class="st2" x="-14.2" y="583.9" width="255.1" height="184.3" transform="translate(789.4 562.7) rotate(90)"/>
        <rect class="st2" x="-11.3" y="586.8" width="249.4" height="178.6" transform="translate(789.4 562.7) rotate(90)"/>
      </g>
      <g>
        <rect class="st2" x="170.1" y="583.9" width="255.1" height="184.3" transform="translate(973.7 378.4) rotate(90)"/>
        <rect class="st2" x="172.9" y="586.8" width="249.4" height="178.6" transform="translate(973.7 378.4) rotate(90)"/>
      </g>
      <g>
        <rect class="st2" x="354.3" y="583.9" width="255.1" height="184.3" transform="translate(1158 194.2) rotate(90)"/>
        <rect class="st2" x="357.2" y="586.8" width="249.4" height="178.6" transform="translate(1158 194.2) rotate(90)"/>
      </g>
    </g>
  </g>
  <g id="repere_avec_bleed" class="st3">
    <g>
      <line class="st1" x1="18.5" y1="41.1" x2="29.8" y2="41.1"/>
      <line class="st1" x1="24.1" y1="35.4" x2="24.1" y2="46.7"/>
    </g>
    <g>
      <line class="st1" x1="197" y1="41.1" x2="208.3" y2="41.1"/>
      <line class="st1" x1="202.6" y1="35.4" x2="202.6" y2="46.7"/>
    </g>
    <g>
      <line class="st1" x1="202.7" y1="41.1" x2="214" y2="41.1"/>
      <line class="st1" x1="208.3" y1="35.4" x2="208.3" y2="46.7"/>
    </g>
    <g>
      <line class="st1" x1="381.3" y1="41.1" x2="392.6" y2="41.1"/>
      <line class="st1" x1="386.9" y1="35.4" x2="386.9" y2="46.7"/>
    </g>
    <g>
      <line class="st1" x1="386.9" y1="41.1" x2="398.2" y2="41.1"/>
      <line class="st1" x1="392.5" y1="35.4" x2="392.5" y2="46.7"/>
    </g>
    <g>
      <line class="st1" x1="565.6" y1="41.1" x2="576.9" y2="41.1"/>
      <line class="st1" x1="571.2" y1="35.4" x2="571.2" y2="46.7"/>
    </g>
    <g>
      <line class="st1" x1="18.5" y1="290.6" x2="29.8" y2="290.6"/>
      <line class="st1" x1="24.1" y1="284.9" x2="24.1" y2="296.2"/>
    </g>
    <g>
      <line class="st1" x1="197" y1="290.6" x2="208.3" y2="290.6"/>
      <line class="st1" x1="202.6" y1="284.9" x2="202.6" y2="296.2"/>
    </g>
    <g>
      <line class="st1" x1="202.7" y1="290.6" x2="214" y2="290.6"/>
      <line class="st1" x1="208.3" y1="284.9" x2="208.3" y2="296.2"/>
    </g>
    <g>
      <line class="st1" x1="381.3" y1="290.6" x2="392.6" y2="290.6"/>
      <line class="st1" x1="386.9" y1="284.9" x2="386.9" y2="296.2"/>
    </g>
    <g>
      <line class="st1" x1="386.9" y1="290.6" x2="398.2" y2="290.6"/>
      <line class="st1" x1="392.5" y1="284.9" x2="392.5" y2="296.2"/>
    </g>
    <g>
      <line class="st1" x1="565.6" y1="290.6" x2="576.9" y2="290.6"/>
      <line class="st1" x1="571.2" y1="284.9" x2="571.2" y2="296.2"/>
    </g>
    <g>
      <line class="st1" x1="18.5" y1="296.2" x2="29.8" y2="296.2"/>
      <line class="st1" x1="24.1" y1="290.5" x2="24.1" y2="301.8"/>
    </g>
    <g>
      <line class="st1" x1="197" y1="296.2" x2="208.3" y2="296.2"/>
      <line class="st1" x1="202.6" y1="290.5" x2="202.6" y2="301.8"/>
    </g>
    <g>
      <line class="st1" x1="202.7" y1="296.2" x2="214" y2="296.2"/>
      <line class="st1" x1="208.3" y1="290.5" x2="208.3" y2="301.8"/>
    </g>
    <g>
      <line class="st1" x1="381.3" y1="296.2" x2="392.6" y2="296.2"/>
      <line class="st1" x1="386.9" y1="290.5" x2="386.9" y2="301.8"/>
    </g>
    <g>
      <line class="st1" x1="386.9" y1="296.2" x2="398.2" y2="296.2"/>
      <line class="st1" x1="392.5" y1="290.5" x2="392.5" y2="301.8"/>
    </g>
    <g>
      <line class="st1" x1="565.6" y1="296.2" x2="576.9" y2="296.2"/>
      <line class="st1" x1="571.2" y1="290.5" x2="571.2" y2="301.8"/>
    </g>
    <g>
      <line class="st1" x1="18.5" y1="545.7" x2="29.8" y2="545.7"/>
      <line class="st1" x1="24.1" y1="540" x2="24.1" y2="551.3"/>
    </g>
    <g>
      <line class="st1" x1="197" y1="545.7" x2="208.3" y2="545.7"/>
      <line class="st1" x1="202.6" y1="540" x2="202.6" y2="551.3"/>
    </g>
    <g>
      <line class="st1" x1="202.7" y1="545.7" x2="214" y2="545.7"/>
      <line class="st1" x1="208.3" y1="540" x2="208.3" y2="551.3"/>
    </g>
    <g>
      <line class="st1" x1="381.3" y1="545.7" x2="392.6" y2="545.7"/>
      <line class="st1" x1="386.9" y1="540" x2="386.9" y2="551.3"/>
    </g>
    <g>
      <line class="st1" x1="386.9" y1="545.7" x2="398.2" y2="545.7"/>
      <line class="st1" x1="392.5" y1="540" x2="392.5" y2="551.3"/>
    </g>
    <g>
      <line class="st1" x1="565.6" y1="545.7" x2="576.9" y2="545.7"/>
      <line class="st1" x1="571.2" y1="540" x2="571.2" y2="551.3"/>
    </g>
    <g>
      <line class="st1" x1="18.5" y1="551.3" x2="29.8" y2="551.3"/>
      <line class="st1" x1="24.1" y1="545.6" x2="24.1" y2="556.9"/>
    </g>
    <g>
      <line class="st1" x1="197" y1="551.3" x2="208.3" y2="551.3"/>
      <line class="st1" x1="202.6" y1="545.6" x2="202.6" y2="556.9"/>
    </g>
    <g>
      <line class="st1" x1="202.7" y1="551.3" x2="214" y2="551.3"/>
      <line class="st1" x1="208.3" y1="545.6" x2="208.3" y2="556.9"/>
    </g>
    <g>
      <line class="st1" x1="381.3" y1="551.3" x2="392.6" y2="551.3"/>
      <line class="st1" x1="386.9" y1="545.6" x2="386.9" y2="556.9"/>
    </g>
    <g>
      <line class="st1" x1="386.9" y1="551.3" x2="398.2" y2="551.3"/>
      <line class="st1" x1="392.5" y1="545.6" x2="392.5" y2="556.9"/>
    </g>
    <g>
      <line class="st1" x1="565.6" y1="551.3" x2="576.9" y2="551.3"/>
      <line class="st1" x1="571.2" y1="545.6" x2="571.2" y2="556.9"/>
    </g>
    <g>
      <line class="st1" x1="18.5" y1="800.8" x2="29.8" y2="800.8"/>
      <line class="st1" x1="24.1" y1="795.1" x2="24.1" y2="806.4"/>
    </g>
    <g>
      <line class="st1" x1="197" y1="800.8" x2="208.3" y2="800.8"/>
      <line class="st1" x1="202.6" y1="795.1" x2="202.6" y2="806.4"/>
    </g>
    <g>
      <line class="st1" x1="202.7" y1="800.8" x2="214" y2="800.8"/>
      <line class="st1" x1="208.3" y1="795.1" x2="208.3" y2="806.4"/>
    </g>
    <g>
      <line class="st1" x1="381.3" y1="800.8" x2="392.6" y2="800.8"/>
      <line class="st1" x1="386.9" y1="795.1" x2="386.9" y2="806.4"/>
    </g>
    <g>
      <line class="st1" x1="386.9" y1="800.8" x2="398.2" y2="800.8"/>
      <line class="st1" x1="392.5" y1="795.1" x2="392.5" y2="806.4"/>
    </g>
    <g>
      <line class="st1" x1="565.6" y1="800.8" x2="576.9" y2="800.8"/>
      <line class="st1" x1="571.2" y1="795.1" x2="571.2" y2="806.4"/>
    </g>
  </g>
</svg>