<?xml version="1.0" encoding="UTF-8"?>
<svg id="Layer_1" xmlns="http://www.w3.org/2000/svg" version="1.1" viewBox="0 0 595.3 841.9">
  <!-- Generator: Adobe Illustrator 29.3.0, SVG Export Plug-In . SVG Version: 2.1.0 Build 146)  -->
  <defs>
    <style>
      .st0, .st1 {
        fill: none;
      }

      .st1 {
        stroke: red;
        stroke-miterlimit: 10;
        stroke-width: .7px;
      }

      .st2 {
        fill-rule: evenodd;
      }

      .st2, .st3 {
        fill: #ed2024;
      }
    </style>
  </defs>
  <g id="Layer_2">
    <g>
      <g>
        <g>
          <g>
            <line class="st1" x1="18.1" y1="40.7" x2="29.4" y2="40.7"/>
            <line class="st1" x1="23.8" y1="35" x2="23.8" y2="46.3"/>
            <line class="st1" x1="197.4" y1="40.7" x2="208.7" y2="40.7"/>
            <line class="st1" x1="203.1" y1="35" x2="203.1" y2="46.3"/>
          </g>
          <g>
            <line class="st1" x1="18.1" y1="290.9" x2="29.4" y2="290.9"/>
            <line class="st1" x1="23.7" y1="285.3" x2="23.7" y2="296.6"/>
            <line class="st1" x1="197.4" y1="290.9" x2="208.7" y2="290.9"/>
            <line class="st1" x1="203" y1="285.3" x2="203" y2="296.6"/>
          </g>
        </g>
        <g>
          <g>
            <line class="st1" x1="202.3" y1="40.7" x2="213.7" y2="40.7"/>
            <line class="st1" x1="208" y1="35" x2="208" y2="46.3"/>
            <line class="st1" x1="381.6" y1="40.7" x2="393" y2="40.7"/>
            <line class="st1" x1="387.3" y1="35" x2="387.3" y2="46.3"/>
          </g>
          <g>
            <line class="st1" x1="202.3" y1="290.9" x2="213.6" y2="290.9"/>
            <line class="st1" x1="208" y1="285.3" x2="208" y2="296.6"/>
            <line class="st1" x1="381.6" y1="290.9" x2="392.9" y2="290.9"/>
            <line class="st1" x1="387.3" y1="285.3" x2="387.3" y2="296.6"/>
          </g>
        </g>
        <g>
          <g>
            <line class="st1" x1="386.6" y1="40.7" x2="397.9" y2="40.7"/>
            <line class="st1" x1="392.2" y1="35" x2="392.2" y2="46.3"/>
            <line class="st1" x1="565.9" y1="40.7" x2="577.2" y2="40.7"/>
            <line class="st1" x1="571.5" y1="35" x2="571.5" y2="46.3"/>
          </g>
          <g>
            <line class="st1" x1="386.6" y1="290.9" x2="397.9" y2="290.9"/>
            <line class="st1" x1="392.2" y1="285.3" x2="392.2" y2="296.6"/>
            <line class="st1" x1="565.9" y1="290.9" x2="577.2" y2="290.9"/>
            <line class="st1" x1="571.5" y1="285.3" x2="571.5" y2="296.6"/>
          </g>
        </g>
      </g>
      <g>
        <g>
          <g>
            <line class="st1" x1="18.1" y1="295.8" x2="29.4" y2="295.8"/>
            <line class="st1" x1="23.8" y1="290.2" x2="23.8" y2="301.5"/>
            <line class="st1" x1="197.4" y1="295.8" x2="208.7" y2="295.8"/>
            <line class="st1" x1="203.1" y1="290.2" x2="203.1" y2="301.5"/>
          </g>
          <g>
            <line class="st1" x1="18.1" y1="546.1" x2="29.4" y2="546.1"/>
            <line class="st1" x1="23.7" y1="540.4" x2="23.7" y2="551.7"/>
            <line class="st1" x1="197.4" y1="546.1" x2="208.7" y2="546.1"/>
            <line class="st1" x1="203" y1="540.4" x2="203" y2="551.7"/>
          </g>
        </g>
        <g>
          <g>
            <line class="st1" x1="202.3" y1="295.8" x2="213.7" y2="295.8"/>
            <line class="st1" x1="208" y1="290.2" x2="208" y2="301.5"/>
            <line class="st1" x1="381.6" y1="295.8" x2="393" y2="295.8"/>
            <line class="st1" x1="387.3" y1="290.2" x2="387.3" y2="301.5"/>
          </g>
          <g>
            <line class="st1" x1="202.3" y1="546.1" x2="213.6" y2="546.1"/>
            <line class="st1" x1="208" y1="540.4" x2="208" y2="551.7"/>
            <line class="st1" x1="381.6" y1="546.1" x2="392.9" y2="546.1"/>
            <line class="st1" x1="387.3" y1="540.4" x2="387.3" y2="551.7"/>
          </g>
        </g>
        <g>
          <g>
            <line class="st1" x1="386.6" y1="295.8" x2="397.9" y2="295.8"/>
            <line class="st1" x1="392.2" y1="290.2" x2="392.2" y2="301.5"/>
            <line class="st1" x1="565.9" y1="295.8" x2="577.2" y2="295.8"/>
            <line class="st1" x1="571.5" y1="290.2" x2="571.5" y2="301.5"/>
          </g>
          <g>
            <line class="st1" x1="386.6" y1="546.1" x2="397.9" y2="546.1"/>
            <line class="st1" x1="392.2" y1="540.4" x2="392.2" y2="551.7"/>
            <line class="st1" x1="565.9" y1="546.1" x2="577.2" y2="546.1"/>
            <line class="st1" x1="571.5" y1="540.4" x2="571.5" y2="551.7"/>
          </g>
        </g>
      </g>
      <g>
        <g>
          <g>
            <line class="st1" x1="18.1" y1="551" x2="29.4" y2="551"/>
            <line class="st1" x1="23.8" y1="545.3" x2="23.8" y2="556.6"/>
            <line class="st1" x1="197.4" y1="551" x2="208.7" y2="551"/>
            <line class="st1" x1="203.1" y1="545.3" x2="203.1" y2="556.6"/>
          </g>
          <g>
            <line class="st1" x1="18.1" y1="801.2" x2="29.4" y2="801.2"/>
            <line class="st1" x1="23.7" y1="795.5" x2="23.7" y2="806.9"/>
            <line class="st1" x1="197.4" y1="801.2" x2="208.7" y2="801.2"/>
            <line class="st1" x1="203" y1="795.5" x2="203" y2="806.9"/>
          </g>
        </g>
        <g>
          <g>
            <line class="st1" x1="202.3" y1="551" x2="213.7" y2="551"/>
            <line class="st1" x1="208" y1="545.3" x2="208" y2="556.6"/>
            <line class="st1" x1="381.6" y1="551" x2="393" y2="551"/>
            <line class="st1" x1="387.3" y1="545.3" x2="387.3" y2="556.6"/>
          </g>
          <g>
            <line class="st1" x1="202.3" y1="801.2" x2="213.6" y2="801.2"/>
            <line class="st1" x1="208" y1="795.5" x2="208" y2="806.9"/>
            <line class="st1" x1="381.6" y1="801.2" x2="392.9" y2="801.2"/>
            <line class="st1" x1="387.3" y1="795.5" x2="387.3" y2="806.9"/>
          </g>
        </g>
        <g>
          <g>
            <line class="st1" x1="386.6" y1="551" x2="397.9" y2="551"/>
            <line class="st1" x1="392.2" y1="545.3" x2="392.2" y2="556.6"/>
            <line class="st1" x1="565.9" y1="551" x2="577.2" y2="551"/>
            <line class="st1" x1="571.5" y1="545.3" x2="571.5" y2="556.6"/>
          </g>
          <g>
            <line class="st1" x1="386.6" y1="801.2" x2="397.9" y2="801.2"/>
            <line class="st1" x1="392.2" y1="795.5" x2="392.2" y2="806.9"/>
            <line class="st1" x1="565.9" y1="801.2" x2="577.2" y2="801.2"/>
            <line class="st1" x1="571.5" y1="795.5" x2="571.5" y2="806.9"/>
          </g>
        </g>
      </g>
    </g>
  </g>
  <!-- <rect class="st1" y="0" width="595.3" height="841.9"/> -->
</svg>